<svg xmlns="http://www.w3.org/2000/svg" xmlns:xlink="http://www.w3.org/1999/xlink" viewBox="0 0 500 500"><defs><style>.a,.f{fill:none;}.b{clip-path:url(#d);}.c{clip-path:url(#a);}.d{fill:#eee;stroke:#d8d8d8;}.d,.e,.f{stroke-width:2px;}.e{fill:#ff0;stroke-linejoin:round;}.e,.f{stroke:#7e7e00;}.f{stroke-dasharray:3;}.g{fill:#fff;}</style><clipPath id="a"><rect class="a" width="284.975" height="45"/></clipPath><clipPath id="d"><rect width="500" height="500"/></clipPath></defs><g id="c" class="b"><rect class="g" width="500" height="500"/><g class="c" transform="translate(108 110.788)"><g transform="translate(-100 -125.788)"><path class="d" d="M245,185.3h18.605l5.692-17.511,5.529,17.511H293l-14.85,10.675,5.607,16.813-14.868-10.679-14.6,10.679,5.977-16.813Z" transform="translate(-145 -42)"/></g><g transform="translate(-42 -125.788)"><path class="d" d="M245,185.3h18.605l5.692-17.511,5.529,17.511H293l-14.85,10.675,5.607,16.813-14.868-10.679-14.6,10.679,5.977-16.813Z" transform="translate(-145 -42)"/></g><g transform="translate(16 -125.788)"><path class="d" d="M245,185.3h18.605l5.692-17.511,5.529,17.511H293l-14.85,10.675,5.607,16.813-14.868-10.679-14.6,10.679,5.977-16.813Z" transform="translate(-145 -42)"/></g><g transform="translate(74 -125.788)"><path class="d" d="M245,185.3h18.605l5.692-17.511,5.529,17.511H293l-14.85,10.675,5.607,16.813-14.868-10.679-14.6,10.679,5.977-16.813Z" transform="translate(-145 -42)"/></g><g transform="translate(132 -125.788)"><path class="d" d="M245,185.3h18.605l5.692-17.511,5.529,17.511H293l-14.85,10.675,5.607,16.813-14.868-10.679-14.6,10.679,5.977-16.813Z" transform="translate(-145 -42)"/></g></g><g class="c" transform="translate(108 170.788)"><g transform="translate(-100 -125.788)"><path class="e" d="M245,185.3h18.6l5.689-17.511L274.81,185.3h18.165l-14.842,10.675,5.6,16.813-14.86-10.679-14.588,10.679,5.974-16.813Z" transform="translate(-145 -42)"/></g><g transform="translate(-42 -125.788)"><path class="e" d="M245,185.3h18.6l5.689-17.511L274.81,185.3h18.165l-14.842,10.675,5.6,16.813-14.86-10.679-14.588,10.679,5.974-16.813Z" transform="translate(-145 -42)"/></g><g transform="translate(16 -125.788)"><path class="e" d="M245,185.3h18.6l5.689-17.511L274.81,185.3h18.165l-14.842,10.675,5.6,16.813-14.86-10.679-14.588,10.679,5.974-16.813Z" transform="translate(-145 -42)"/></g><g transform="translate(74 -125.788)"><path class="e" d="M245,185.3h18.6l5.689-17.511L274.81,185.3h18.165l-14.842,10.675,5.6,16.813-14.86-10.679-14.588,10.679,5.974-16.813Z" transform="translate(-145 -42)"/></g><g transform="translate(132 -125.788)"><path class="e" d="M245,185.3h18.6l5.689-17.511L274.81,185.3h18.165l-14.842,10.675,5.6,16.813-14.86-10.679-14.588,10.679,5.974-16.813Z" transform="translate(-145 -42)"/></g></g><line class="f" x2="48" transform="translate(341.5 226.5)"/></g></svg>